<?xml version="1.0" standalone="no"?>
<!DOCTYPE svg PUBLIC "-//W3C//DTD SVG 20010904//EN"
 "http://www.w3.org/TR/2001/REC-SVG-20010904/DTD/svg10.dtd">
<svg version="1.0" xmlns="http://www.w3.org/2000/svg"
 width="576.000000pt" height="576.000000pt" viewBox="0 0 576.000000 576.000000"
 preserveAspectRatio="xMidYMid meet">
<metadata>
Created by potrace 1.14, written by Peter Selinger 2001-2017
</metadata>
<g transform="translate(0.000000,576.000000) scale(0.100000,-0.100000)"
fill="#000000" stroke="none">
<path d="M1675 5740 c-33 -11 -71 -25 -85 -32 -73 -37 -186 -144 -221 -210 -6
-12 -15 -25 -19 -28 -9 -7 -69 -134 -86 -183 -34 -96 -61 -225 -69 -332 -6
-76 -6 -317 0 -345 3 -14 8 -41 10 -60 17 -139 67 -308 134 -450 37 -79 110
-203 123 -208 4 -2 8 -8 8 -14 0 -24 151 -175 225 -224 197 -132 400 -151 588
-57 55 28 172 138 211 201 71 113 131 266 152 390 2 12 7 34 10 50 11 48 13
335 3 402 -6 36 -12 74 -13 85 -2 11 -6 29 -9 40 -3 11 -8 31 -11 45 -25 148
-129 407 -222 551 -46 73 -144 193 -181 222 -13 10 -29 24 -36 31 -21 21 -105
76 -115 76 -6 0 -12 4 -14 10 -1 5 -12 11 -23 13 -11 1 -24 5 -30 9 -58 36
-241 45 -330 18z"/>
<path d="M3788 5715 c-2 -2 -15 -5 -28 -7 -39 -6 -160 -51 -160 -60 0 -4 -6
-8 -13 -8 -44 0 -222 -172 -302 -291 -127 -189 -243 -498 -271 -719 -17 -140
-2 -450 25 -495 3 -5 6 -17 8 -25 16 -116 119 -313 213 -410 109 -112 213
-158 359 -157 100 0 153 12 239 52 222 105 434 391 540 730 8 28 17 55 19 60
15 48 54 244 58 300 10 123 6 268 -11 346 -2 13 -9 44 -14 69 -15 79 -60 203
-102 280 -118 221 -268 328 -470 335 -47 2 -88 2 -90 0z"/>
<path d="M510 3939 c-96 -19 -189 -82 -280 -188 -52 -62 -122 -248 -138 -371
-9 -69 -9 -280 0 -340 17 -114 55 -260 87 -335 5 -11 21 -49 36 -85 39 -92
147 -284 175 -310 3 -3 18 -23 35 -45 38 -52 139 -153 190 -190 22 -17 42 -32
45 -35 18 -20 141 -74 202 -89 237 -60 459 51 567 284 23 48 57 141 59 158 0
4 6 33 13 65 23 102 15 408 -11 478 -5 13 -9 28 -8 32 1 4 -4 27 -11 52 -103
379 -338 719 -593 859 -106 58 -256 83 -368 60z"/>
<path d="M5015 3944 c-78 -18 -118 -30 -175 -56 -36 -16 -67 -33 -70 -36 -3
-4 -23 -19 -45 -33 -75 -49 -175 -157 -273 -295 -36 -50 -136 -253 -148 -299
-1 -5 -16 -50 -34 -100 -17 -49 -33 -106 -36 -125 -3 -19 -7 -43 -10 -52 -35
-122 -37 -393 -2 -523 5 -22 12 -47 13 -55 25 -110 115 -265 185 -320 18 -14
37 -29 44 -35 23 -21 94 -54 136 -65 59 -15 265 -15 265 1 0 1 9 3 21 4 28 3
182 78 218 107 91 71 266 267 266 298 0 5 4 10 8 10 5 0 17 18 27 40 10 22 22
40 27 40 4 0 8 5 8 10 0 6 17 47 39 93 33 71 85 209 97 256 2 9 10 43 18 76
24 101 39 219 39 315 1 55 -12 200 -18 210 -2 3 -6 17 -9 31 -7 39 -56 183
-64 189 -4 3 -18 27 -32 54 -26 52 -146 186 -166 186 -7 0 -14 3 -16 8 -5 12
-61 39 -113 54 -49 15 -160 21 -200 12z"/>
<path d="M2760 2753 c-22 -3 -112 -19 -160 -28 -42 -8 -219 -81 -295 -121 -74
-39 -270 -165 -285 -183 -3 -3 -23 -19 -45 -36 -66 -48 -103 -83 -240 -220
-140 -140 -174 -177 -248 -270 -27 -33 -55 -68 -64 -79 -38 -47 -196 -290
-243 -375 -75 -136 -198 -411 -183 -411 3 0 1 -6 -4 -12 -11 -14 -59 -191 -68
-248 -2 -19 -9 -60 -13 -91 -9 -56 -8 -235 1 -274 21 -92 50 -165 70 -173 4
-2 7 -9 7 -16 0 -20 88 -98 150 -133 50 -29 116 -52 195 -69 102 -22 356 -8
495 27 25 6 50 12 55 13 6 1 15 5 21 8 6 4 21 9 35 12 24 5 178 59 214 75 22
10 54 22 70 27 6 2 52 19 103 39 205 78 327 106 482 110 176 5 273 -19 590
-145 113 -45 241 -93 285 -107 44 -14 87 -28 95 -31 19 -7 19 -7 60 -15 19 -4
46 -10 60 -13 14 -4 88 -8 165 -9 138 -3 188 1 320 29 88 18 197 80 264 149
40 41 91 130 91 159 0 8 3 18 7 22 4 4 9 19 12 34 7 36 5 291 -2 318 -3 12 -8
39 -11 59 -17 103 -77 296 -135 428 -11 26 -21 49 -21 52 -2 11 -107 207 -148
275 -83 138 -279 409 -304 418 -4 2 -8 7 -8 11 0 12 -80 100 -200 219 -105
104 -275 247 -360 302 -25 16 -49 33 -55 37 -42 33 -234 135 -305 162 -156 59
-339 89 -450 74z"/>
</g>
</svg>
