<svg width="18" height="22" viewBox="0 0 18 22" fill="none" xmlns="http://www.w3.org/2000/svg">
<path d="M15.4999 4.49999H13.3333C13.3333 2.10582 11.3941 0.166656 8.99992 0.166656C6.60575 0.166656 4.66659 2.10582 4.66659 4.49999H2.49992C1.30825 4.49999 0.333252 5.47499 0.333252 6.66666V19.6667C0.333252 20.8583 1.30825 21.8333 2.49992 21.8333H15.4999C16.6916 21.8333 17.6666 20.8583 17.6666 19.6667V6.66666C17.6666 5.47499 16.6916 4.49999 15.4999 4.49999ZM8.99992 2.33332C10.1916 2.33332 11.1666 3.30832 11.1666 4.49999H6.83325C6.83325 3.30832 7.80825 2.33332 8.99992 2.33332ZM15.4999 19.6667H2.49992V6.66666H4.66659V8.83332C4.66659 9.42916 5.15409 9.91666 5.74992 9.91666C6.34575 9.91666 6.83325 9.42916 6.83325 8.83332V6.66666H11.1666V8.83332C11.1666 9.42916 11.6541 9.91666 12.2499 9.91666C12.8458 9.91666 13.3333 9.42916 13.3333 8.83332V6.66666H15.4999V19.6667Z" fill="#999BA4"/>
</svg>
