<svg width="14" height="14" viewBox="0 0 14 14" fill="none" xmlns="http://www.w3.org/2000/svg">
<g opacity="0.6">
<path d="M5.1525 3.60671C5.1525 4.01666 4.98965 4.40982 4.69977 4.69971C4.40989 4.98959 4.01672 5.15244 3.60677 5.15244C3.19681 5.15244 2.80365 4.98959 2.51377 4.69971C2.22389 4.40982 2.06104 4.01666 2.06104 3.60671C2.06104 3.19675 2.22389 2.80359 2.51377 2.51371C2.80365 2.22383 3.19681 2.06097 3.60677 2.06097C4.01672 2.06097 4.40989 2.22383 4.69977 2.51371C4.98965 2.80359 5.1525 3.19675 5.1525 3.60671ZM4.12201 3.60671C4.12201 3.47006 4.06773 3.339 3.9711 3.24237C3.87447 3.14575 3.74342 3.09146 3.60677 3.09146C3.47012 3.09146 3.33906 3.14575 3.24244 3.24237C3.14581 3.339 3.09152 3.47006 3.09152 3.60671C3.09152 3.74336 3.14581 3.87441 3.24244 3.97104C3.33906 4.06767 3.47012 4.12195 3.60677 4.12195C3.74342 4.12195 3.87447 4.06767 3.9711 3.97104C4.06773 3.87441 4.12201 3.74336 4.12201 3.60671Z" fill="black"/>
<path d="M1.03049 0H5.75631C6.02959 5.83642e-05 6.29166 0.108666 6.48487 0.301933L13.6983 7.51535C13.8915 7.7086 14 7.97066 14 8.24391C14 8.51716 13.8915 8.77922 13.6983 8.97247L8.97247 13.6983C8.77922 13.8915 8.51716 14 8.24391 14C7.97066 14 7.7086 13.8915 7.51535 13.6983L0.301933 6.48487C0.108666 6.29166 5.83642e-05 6.02959 0 5.75631V1.03049C0 0.757186 0.108569 0.495077 0.301823 0.301823C0.495077 0.108569 0.757186 0 1.03049 0ZM1.03049 5.75631L8.24391 12.9697L12.9697 8.24391L5.75631 1.03049H1.03049V5.75631Z" fill="black"/>
</g>
</svg>
