<svg width="111" height="36" viewBox="0 0 111 36" fill="none" xmlns="http://www.w3.org/2000/svg">
<path d="M38.66 31V17H44.72C45.9733 17 47.0533 17.2067 47.96 17.62C48.8667 18.02 49.5667 18.6 50.06 19.36C50.5533 20.12 50.8 21.0267 50.8 22.08C50.8 23.12 50.5533 24.02 50.06 24.78C49.5667 25.54 48.8667 26.1267 47.96 26.54C47.0533 26.94 45.9733 27.14 44.72 27.14H40.46L41.9 25.68V31H38.66ZM41.9 26.04L40.46 24.5H44.54C45.54 24.5 46.2867 24.2867 46.78 23.86C47.2733 23.4333 47.52 22.84 47.52 22.08C47.52 21.3067 47.2733 20.7067 46.78 20.28C46.2867 19.8533 45.54 19.64 44.54 19.64H40.46L41.9 18.1V26.04ZM58.2136 31.16C56.9869 31.16 55.9069 30.92 54.9736 30.44C54.0536 29.96 53.3403 29.3067 52.8336 28.48C52.3269 27.64 52.0736 26.6867 52.0736 25.62C52.0736 24.54 52.3203 23.5867 52.8136 22.76C53.3203 21.92 54.0069 21.2667 54.8736 20.8C55.7403 20.32 56.7203 20.08 57.8136 20.08C58.8669 20.08 59.8136 20.3067 60.6536 20.76C61.5069 21.2 62.1803 21.84 62.6736 22.68C63.1669 23.5067 63.4136 24.5 63.4136 25.66C63.4136 25.78 63.4069 25.92 63.3936 26.08C63.3803 26.2267 63.3669 26.3667 63.3536 26.5H54.6136V24.68H61.7136L60.5136 25.22C60.5136 24.66 60.4003 24.1733 60.1736 23.76C59.9469 23.3467 59.6336 23.0267 59.2336 22.8C58.8336 22.56 58.3669 22.44 57.8336 22.44C57.3003 22.44 56.8269 22.56 56.4136 22.8C56.0136 23.0267 55.7003 23.3533 55.4736 23.78C55.2469 24.1933 55.1336 24.6867 55.1336 25.26V25.74C55.1336 26.3267 55.2603 26.8467 55.5136 27.3C55.7803 27.74 56.1469 28.08 56.6136 28.32C57.0936 28.5467 57.6536 28.66 58.2936 28.66C58.8669 28.66 59.3669 28.5733 59.7936 28.4C60.2336 28.2267 60.6336 27.9667 60.9936 27.62L62.6536 29.42C62.1603 29.98 61.5403 30.4133 60.7936 30.72C60.0469 31.0133 59.1869 31.16 58.2136 31.16ZM69.8908 31.16C68.6241 31.16 67.6374 30.84 66.9308 30.2C66.2241 29.5467 65.8708 28.58 65.8708 27.3V17.86H68.9908V27.26C68.9908 27.7133 69.1108 28.0667 69.3508 28.32C69.5908 28.56 69.9174 28.68 70.3308 28.68C70.8241 28.68 71.2441 28.5467 71.5908 28.28L72.4308 30.48C72.1108 30.7067 71.7241 30.88 71.2708 31C70.8308 31.1067 70.3708 31.16 69.8908 31.16ZM64.2108 22.88V20.48H71.6708V22.88H64.2108ZM78.3478 31.16C77.0811 31.16 76.0945 30.84 75.3878 30.2C74.6811 29.5467 74.3278 28.58 74.3278 27.3V17.86H77.4478V27.26C77.4478 27.7133 77.5678 28.0667 77.8078 28.32C78.0478 28.56 78.3745 28.68 78.7878 28.68C79.2811 28.68 79.7011 28.5467 80.0478 28.28L80.8878 30.48C80.5678 30.7067 80.1811 30.88 79.7278 31C79.2878 31.1067 78.8278 31.16 78.3478 31.16ZM72.6678 22.88V20.48H80.1278V22.88H72.6678ZM82.6392 31V20.24H85.7592V31H82.6392ZM84.1992 18.74C83.6259 18.74 83.1592 18.5733 82.7992 18.24C82.4392 17.9067 82.2592 17.4933 82.2592 17C82.2592 16.5067 82.4392 16.0933 82.7992 15.76C83.1592 15.4267 83.6259 15.26 84.1992 15.26C84.7726 15.26 85.2392 15.42 85.5992 15.74C85.9592 16.0467 86.1392 16.4467 86.1392 16.94C86.1392 17.46 85.9592 17.8933 85.5992 18.24C85.2526 18.5733 84.7859 18.74 84.1992 18.74ZM93.9948 31.16C92.7682 31.16 91.6882 30.92 90.7548 30.44C89.8348 29.96 89.1215 29.3067 88.6148 28.48C88.1082 27.64 87.8548 26.6867 87.8548 25.62C87.8548 24.54 88.1015 23.5867 88.5948 22.76C89.1015 21.92 89.7882 21.2667 90.6548 20.8C91.5215 20.32 92.5015 20.08 93.5948 20.08C94.6482 20.08 95.5948 20.3067 96.4348 20.76C97.2882 21.2 97.9615 21.84 98.4548 22.68C98.9482 23.5067 99.1948 24.5 99.1948 25.66C99.1948 25.78 99.1882 25.92 99.1748 26.08C99.1615 26.2267 99.1482 26.3667 99.1348 26.5H90.3948V24.68H97.4948L96.2948 25.22C96.2948 24.66 96.1815 24.1733 95.9548 23.76C95.7282 23.3467 95.4148 23.0267 95.0148 22.8C94.6148 22.56 94.1482 22.44 93.6148 22.44C93.0815 22.44 92.6082 22.56 92.1948 22.8C91.7948 23.0267 91.4815 23.3533 91.2548 23.78C91.0282 24.1933 90.9148 24.6867 90.9148 25.26V25.74C90.9148 26.3267 91.0415 26.8467 91.2948 27.3C91.5615 27.74 91.9282 28.08 92.3948 28.32C92.8748 28.5467 93.4348 28.66 94.0748 28.66C94.6482 28.66 95.1482 28.5733 95.5748 28.4C96.0148 28.2267 96.4148 27.9667 96.7748 27.62L98.4348 29.42C97.9415 29.98 97.3215 30.4133 96.5748 30.72C95.8282 31.0133 94.9682 31.16 93.9948 31.16ZM104.892 31.16C103.972 31.16 103.085 31.0533 102.232 30.84C101.392 30.6133 100.725 30.3333 100.232 30L101.272 27.76C101.765 28.0667 102.345 28.32 103.012 28.52C103.692 28.7067 104.359 28.8 105.012 28.8C105.732 28.8 106.239 28.7133 106.532 28.54C106.839 28.3667 106.992 28.1267 106.992 27.82C106.992 27.5667 106.872 27.38 106.632 27.26C106.405 27.1267 106.099 27.0267 105.712 26.96C105.325 26.8933 104.899 26.8267 104.432 26.76C103.979 26.6933 103.519 26.6067 103.052 26.5C102.585 26.38 102.159 26.2067 101.772 25.98C101.385 25.7533 101.072 25.4467 100.832 25.06C100.605 24.6733 100.492 24.1733 100.492 23.56C100.492 22.88 100.685 22.28 101.072 21.76C101.472 21.24 102.045 20.8333 102.792 20.54C103.539 20.2333 104.432 20.08 105.472 20.08C106.205 20.08 106.952 20.16 107.712 20.32C108.472 20.48 109.105 20.7133 109.612 21.02L108.572 23.24C108.052 22.9333 107.525 22.7267 106.992 22.62C106.472 22.5 105.965 22.44 105.472 22.44C104.779 22.44 104.272 22.5333 103.952 22.72C103.632 22.9067 103.472 23.1467 103.472 23.44C103.472 23.7067 103.585 23.9067 103.812 24.04C104.052 24.1733 104.365 24.28 104.752 24.36C105.139 24.44 105.559 24.5133 106.012 24.58C106.479 24.6333 106.945 24.72 107.412 24.84C107.879 24.96 108.299 25.1333 108.672 25.36C109.059 25.5733 109.372 25.8733 109.612 26.26C109.852 26.6333 109.972 27.1267 109.972 27.74C109.972 28.4067 109.772 29 109.372 29.52C108.972 30.0267 108.392 30.4267 107.632 30.72C106.885 31.0133 105.972 31.16 104.892 31.16Z" fill="#FF7700"/>
<path d="M22.1143 13.8857C25.4571 13.8857 27.5143 9 27.5143 5.91429C27.5143 3.34286 26.2286 0.257143 23.6571 0.257143C20.3143 0.257143 18.2571 5.14286 18.2571 8.22857C18.2571 10.8 19.5429 13.8857 22.1143 13.8857ZM12.3429 13.8857C14.9143 13.8857 16.2 10.8 16.2 8.22857C16.2 4.88571 14.1429 0 10.8 0C8.22857 0 6.94286 3.08571 6.94286 5.65714C6.68571 9 8.74286 13.8857 12.3429 13.8857ZM31.3714 11.3143C28.0286 11.3143 25.7143 15.9429 25.7143 19.2857C25.7143 21.6 26.7429 23.9143 29.0571 23.9143C32.4 23.9143 34.7143 19.2857 34.7143 15.9429C34.7143 13.6286 33.4286 11.3143 31.3714 11.3143ZM9 19.2857C9 15.9429 6.42857 11.3143 3.34286 11.3143C1.02857 11.3143 0 13.6286 0 15.9429C0 19.2857 2.57143 23.9143 5.65714 23.9143C7.97143 23.9143 9 21.6 9 19.2857ZM17.2286 18.7714C12.0857 18.7714 5.14286 27 5.14286 32.6571C5.14286 35.2286 6.94286 36 9 36C12.0857 36 14.4 33.9429 17.2286 33.9429C19.8 33.9429 22.1143 36 24.9429 36C27 36 29.3143 35.4857 29.3143 32.6571C29.3143 27 22.3714 18.7714 17.2286 18.7714Z" fill="#251D3A"/>
</svg>
