<svg width="17" height="12" viewBox="0 0 17 12" fill="none" xmlns="http://www.w3.org/2000/svg">
<path d="M1.001 6.7967C0.783779 6.79648 0.57239 6.86701 0.398805 6.9976C0.225219 7.12819 0.0988791 7.31176 0.0388894 7.52054C-0.0211003 7.72932 -0.0114764 7.95195 0.0663057 8.15477C0.144088 8.35759 0.285797 8.52957 0.470005 8.6447L3.158 11.3327C3.25092 11.4255 3.3612 11.4992 3.48257 11.5494C3.60394 11.5996 3.73401 11.6255 3.86536 11.6254C3.99671 11.6254 4.12676 11.5994 4.24809 11.5491C4.36942 11.4988 4.47966 11.4251 4.5725 11.3322C4.66535 11.2393 4.73899 11.129 4.78921 11.0076C4.83943 10.8863 4.86525 10.7562 4.86521 10.6249C4.86516 10.4935 4.83924 10.3634 4.78894 10.2421C4.73863 10.1208 4.66492 10.0105 4.572 9.9177L3.451 8.7977H11.001C11.2662 8.7977 11.5206 8.69235 11.7081 8.50481C11.8956 8.31727 12.001 8.06292 12.001 7.7977C12.001 7.53249 11.8956 7.27813 11.7081 7.0906C11.5206 6.90306 11.2662 6.7977 11.001 6.7977L1.001 6.7967ZM15.015 4.8287C15.2322 4.82892 15.4436 4.7584 15.6172 4.62781C15.7908 4.49721 15.9171 4.31364 15.9771 4.10487C16.0371 3.89609 16.0275 3.67346 15.9497 3.47063C15.8719 3.26781 15.7302 3.09583 15.546 2.9807L12.858 0.292703C12.6704 0.105195 12.4159 -9.37056e-05 12.1507 6.25777e-08C11.8854 9.38308e-05 11.631 0.105562 11.4435 0.293203C11.256 0.480844 11.1507 0.735286 11.1508 1.00056C11.1509 1.26583 11.2564 1.52019 11.444 1.7077L12.565 2.8277H5.015C4.74979 2.8277 4.49543 2.93306 4.3079 3.1206C4.12036 3.30813 4.015 3.56249 4.015 3.8277C4.015 4.09292 4.12036 4.34727 4.3079 4.53481C4.49543 4.72235 4.74979 4.8277 5.015 4.8277H10.015L15.015 4.8287Z" fill="black"/>
</svg>
