<svg width="14" height="18" viewBox="0 0 14 18" fill="none" xmlns="http://www.w3.org/2000/svg">
<path d="M12.0011 4.00003H10.3345C10.3345 2.15836 8.84281 0.666695 7.00114 0.666695C5.15947 0.666695 3.66781 2.15836 3.66781 4.00003H2.00114C1.08447 4.00003 0.334473 4.75003 0.334473 5.66669V15.6667C0.334473 16.5834 1.08447 17.3334 2.00114 17.3334H12.0011C12.9178 17.3334 13.6678 16.5834 13.6678 15.6667V5.66669C13.6678 4.75003 12.9178 4.00003 12.0011 4.00003ZM7.00114 2.33336C7.91781 2.33336 8.66781 3.08336 8.66781 4.00003H5.33447C5.33447 3.08336 6.08447 2.33336 7.00114 2.33336ZM12.0011 15.6667H2.00114V5.66669H3.66781V7.33336C3.66781 7.79169 4.04281 8.16669 4.50114 8.16669C4.95947 8.16669 5.33447 7.79169 5.33447 7.33336V5.66669H8.66781V7.33336C8.66781 7.79169 9.04281 8.16669 9.50114 8.16669C9.95947 8.16669 10.3345 7.79169 10.3345 7.33336V5.66669H12.0011V15.6667Z" fill="white"/>
</svg>
